Coordinates
version=1
nRows=5
nColumns=46
inDegrees=yes

Units are S.I. units (second, meters, Newtons, ...)
Angles are in degrees.

endheader
time	pelvis_tilt	pelvis_list	pelvis_rotation	pelvis_tx	pelvis_ty	pelvis_tz	bb_angle	bb_tx	bb_ty	bb_tz	hip_flexion_r	hip_adduction_r	hip_rotation_r	knee_angle_r	knee_angle_r_beta	ankle_angle_r	subtalar_angle_r	mtp_angle_r	crank_angle_r	hip_flexion_l	hip_adduction_l	hip_rotation_l	knee_angle_l	knee_angle_l_beta	ankle_angle_l	subtalar_angle_l	mtp_angle_l	crank_angle_l	lumbar_extension	lumbar_bending	lumbar_rotation	arm_flex_r	arm_add_r	arm_rot_r	elbow_flex_r	pro_sup_r	wrist_flex_r	wrist_dev_r	arm_flex_l	arm_add_l	arm_rot_l	elbow_flex_l	pro_sup_l	wrist_flex_l	wrist_dev_l
      7.50000000	    -25.78078193	      7.26465873	      4.42215631	      0.46872513	      1.19456133	     -0.26077815	      0.00000000	      0.50000000	      0.00000000	      0.25000000	     28.18627691	    -12.52266372	    -10.33448024	     23.20558603	      0.40501388	    -12.20208472	      2.75063449	      0.00000000	      0.00000000	     71.61122128	      2.01917092	     -0.17450417	    105.25032316	      1.83696468	    -17.77517125	     -3.78554857	      0.00000000	      0.00000000	    -58.13397349	     -2.20472509	     -0.25534856	     45.20342108	    -17.13297837	     13.82714262	     76.97255688	     55.91787871	      0.00000000	      0.00000000	     53.11511157	     -1.98093177	     16.94462459	     64.63755239	     52.90515293	      0.00000000	      0.00000000
      7.50500000	    -25.72971815	      7.13607741	      5.13485464	      0.46935994	      1.19540478	     -0.26092711	      0.00000000	      0.50000000	      0.00000000	      0.25000000	     27.06174241	    -12.67729082	    -11.45680442	     22.59216054	      0.39430759	    -13.19793574	      2.95130797	      0.00000000	      0.00000000	     72.64249746	      2.53421862	      0.18085989	    105.46595935	      1.84072824	    -17.97989562	     -3.76516029	      0.00000000	      0.00000000	    -58.09845657	     -2.11606837	     -0.63387726	     44.97050523	    -17.18634932	     13.74526718	     76.54186860	     55.85080143	      0.00000000	      0.00000000	     53.34055053	     -2.09537616	     17.32497325	     64.43240693	     52.92210553	      0.00000000	      0.00000000
      7.51000000	    -25.41762385	      6.94006080	      5.93100529	      0.47017545	      1.19703976	     -0.26094994	      0.00000000	      0.50000000	      0.00000000	      0.25000000	     25.62757268	    -12.72097924	    -12.61442907	     22.00744413	      0.38410236	    -14.18545395	      3.01610070	      0.00000000	      0.00000000	     73.30450567	      3.11045360	      0.63486426	    105.49946896	      1.84131309	    -18.11520581	     -3.71004474	      0.00000000	      0.00000000	    -58.39803213	     -1.77085895	     -1.00324494	     45.21614975	    -16.81613001	     13.54079225	     75.62929441	     55.70468220	      0.00000000	      0.00000000	     53.98085499	     -2.69774004	     18.50777867	     63.87631914	     52.98724976	      0.00000000	      0.00000000
      7.51500000	    -25.31610064	      6.72388259	      6.42078146	      0.47021108	      1.19802383	     -0.26146768	      0.00000000	      0.50000000	      0.00000000	      0.25000000	     24.87639346	    -12.75214178	    -13.50128890	     21.97888498	      0.38360391	    -15.15773920	      3.06219882	      0.00000000	      0.00000000	     74.20423743	      3.55144232	      0.97816749	    105.46558587	      1.84072172	    -18.41596138	     -3.79151477	      0.00000000	      0.00000000	    -58.46674430	     -1.63934896	     -1.21710614	     45.23301955	    -16.87565878	     13.45407102	     75.20675608	     55.63864310	      0.00000000	      0.00000000	     54.18874903	     -2.92243981	     18.83398482	     63.83923656	     53.02510281	      0.00000000	      0.00000000
      7.52000000	    -25.22428607	      6.56784280	      6.92847900	      0.47037504	      1.19913080	     -0.26186087	      0.00000000	      0.50000000	      0.00000000	      0.25000000	     24.25865070	    -12.85947763	    -14.34580312	     22.19209901	      0.38732520	    -16.13210547	      2.98386759	      0.00000000	      0.00000000	     74.98999582	      3.98778926	      1.20442420	    105.25757044	      1.83709117	    -18.72120569	     -3.88318656	      0.00000000	      0.00000000	    -58.62613362	     -1.51358818	     -1.47047850	     45.26295048	    -16.88049938	     13.38654163	     74.87561114	     55.58547055	      0.00000000	      0.00000000	     54.52179286	     -3.13744632	     19.12238268	     63.90375304	     53.06994567	      0.00000000	      0.00000000
